<?xml version="1.0" standalone="no"?>
<!DOCTYPE svg PUBLIC "-//W3C//DTD SVG 20010904//EN"
 "http://www.w3.org/TR/2001/REC-SVG-20010904/DTD/svg10.dtd">
<svg version="1.0" xmlns="http://www.w3.org/2000/svg"
 width="100" height="100" viewBox="0 0 324.000000 324.000000"
 preserveAspectRatio="xMidYMid meet">
<metadata>
Created by potrace 1.13, written by Peter Selinger 2001-2015
</metadata>
<g transform="translate(0.000000,324.000000) scale(0.100000,-0.100000)"
fill="#000000" stroke="none">
<path d="M1218 2942 c-137 -90 -360 -604 -488 -1122 -54 -220 -112 -515 -108
-552 4 -38 58 -81 96 -76 21 3 28 16 57 105 38 115 52 144 108 227 l39 58 73
-148 c40 -82 104 -196 143 -254 142 -210 215 -258 291 -195 39 34 101 118 101
139 0 22 -27 20 -57 -4 -35 -27 -61 -25 -114 8 -108 69 -226 260 -310 501
l-33 94 28 53 c49 94 183 223 201 194 13 -21 -16 -121 -45 -154 -32 -36 -29
-46 17 -70 73 -37 104 -13 143 113 28 89 26 115 -10 143 -17 13 -46 35 -64 51
-19 15 -43 27 -55 27 -29 0 -141 -114 -214 -217 -45 -63 -65 -84 -93 -93 -33
-11 -36 -15 -31 -43 3 -24 -7 -49 -46 -114 -27 -46 -51 -82 -53 -80 -5 4 42
233 72 352 89 353 268 766 385 887 50 53 85 61 140 32 34 -17 59 -13 59 10 0
14 -115 113 -157 135 -30 15 -43 14 -75 -7z"/>
<path d="M360 1622 l0 -1262 500 0 500 0 0 75 0 75 -430 0 -430 0 0 1110 0
1110 210 0 210 0 0 70 0 70 -167 0 c-93 0 -219 3 -280 7 l-113 6 0 -1261z"/>
<path d="M2148 2873 l-588 -3 0 -70 0 -70 590 0 590 0 0 -1110 0 -1110 -402
-2 -403 -3 0 -70 0 -70 473 -3 472 -2 0 1260 0 1260 -72 -2 c-40 -2 -337 -4
-660 -5z"/>
<path d="M2164 2275 c-136 -145 -410 -969 -504 -1521 -30 -175 -50 -364 -40
-389 10 -25 87 -95 106 -95 19 0 23 21 39 223 19 237 35 340 84 532 84 326
189 539 385 772 128 154 195 203 232 172 14 -12 16 -29 11 -114 -11 -207 -119
-478 -213 -536 -29 -18 -43 -20 -99 -14 -76 8 -86 -6 -35 -48 54 -45 136 -80
174 -73 100 19 240 289 292 563 21 116 16 191 -18 235 -35 44 -147 103 -181
94 -34 -8 -229 -214 -307 -324 -35 -50 -66 -90 -68 -88 -6 7 98 257 145 348
25 48 62 106 82 130 35 39 43 43 97 48 43 4 59 9 59 20 0 19 -122 89 -169 97
-32 5 -40 2 -72 -32z"/>
</g>
</svg>
